<?xml version="1.0" standalone="no"?>
<!DOCTYPE svg PUBLIC "-//W3C//DTD SVG 20010904//EN"
 "http://www.w3.org/TR/2001/REC-SVG-20010904/DTD/svg10.dtd">
<svg version="1.0" xmlns="http://www.w3.org/2000/svg"
 width="512.000000pt" height="512.000000pt" viewBox="0 0 512.000000 512.000000"
 preserveAspectRatio="xMidYMid meet">
<metadata>
Created by potrace 1.16, written by Peter Selinger 2001-2019
</metadata>
<g transform="translate(0.000000,512.000000) scale(0.100000,-0.100000)"
fill="#000000" stroke="none">
<path d="M761 4804 c-215 -58 -390 -234 -446 -450 -13 -50 -15 -235 -15 -1386
l0 -1328 60 0 59 0 3 1318 3 1317 22 65 c55 162 171 278 332 333 l66 22 1378
3 1377 3 0 59 0 60 -1392 -1 c-1188 0 -1401 -2 -1447 -15z"/>
<path d="M3680 4762 l0 -60 303 -4 c277 -5 307 -7 361 -27 167 -60 278 -174
329 -336 l22 -70 0 -1705 0 -1705 -22 -70 c-52 -163 -166 -280 -331 -337 l-67
-23 -1710 0 -1710 0 -70 22 c-164 52 -284 171 -337 333 -18 57 -21 96 -26 322
l-4 258 -60 0 -59 0 3 -292 c3 -290 4 -294 30 -360 71 -178 191 -299 373 -374
l70 -29 1785 0 1785 0 67 27 c178 71 305 198 376 376 l27 67 0 1785 0 1785
-27 67 c-71 178 -198 305 -376 376 l-67 27 -332 3 -333 3 0 -59z"/>
<path d="M3315 3966 c-70 -18 -188 -69 -267 -115 l-67 -39 -98 15 c-129 19
-514 13 -619 -11 l-71 -16 -82 50 c-125 75 -229 112 -332 118 -84 4 -86 4
-107 -23 -51 -65 -81 -246 -64 -386 l11 -92 -48 -73 c-54 -80 -87 -159 -103
-244 -16 -88 -4 -359 21 -460 75 -297 282 -486 621 -565 l76 -18 -28 -57 c-31
-65 -40 -70 -141 -70 -90 0 -124 16 -183 86 -153 182 -198 214 -304 221 -82 5
-130 -16 -144 -64 -13 -46 7 -86 64 -128 70 -52 105 -95 155 -196 96 -190 207
-259 417 -259 l98 0 0 -130 0 -130 -52 -41 c-66 -52 -80 -72 -80 -114 0 -45 6
-52 50 -65 51 -15 821 -24 1010 -12 135 8 156 12 174 30 13 13 21 34 21 53 0
27 -10 42 -66 93 l-66 61 -3 290 c-3 273 -5 294 -26 350 -34 90 -35 87 38 101
334 62 526 243 591 554 32 150 32 401 1 513 -26 94 -69 185 -119 252 l-38 50
0 150 c0 164 -16 246 -59 300 -19 24 -31 29 -77 31 -30 2 -76 -3 -104 -10z
m101 -171 c16 -66 17 -157 3 -249 l-11 -75 60 -83 c111 -152 137 -239 136
-443 -2 -248 -54 -413 -164 -524 -97 -98 -237 -154 -462 -186 -89 -13 -117
-21 -130 -37 -31 -35 -22 -63 31 -108 31 -27 58 -60 72 -93 22 -50 24 -66 29
-352 4 -261 7 -304 23 -332 l17 -33 -25 -6 c-30 -8 -771 -1 -779 7 -3 3 3 23
14 44 18 35 20 59 20 223 0 183 0 183 -26 208 -18 19 -31 24 -49 20 -35 -9
-215 -9 -250 -1 -91 23 -164 92 -208 198 -14 33 -12 32 47 -28 74 -76 125 -95
256 -95 142 0 232 37 245 103 10 46 47 107 89 144 24 21 36 40 36 57 0 46 -28
61 -142 79 -354 55 -549 203 -628 477 -16 55 -23 114 -27 223 -8 215 12 288
119 431 l51 69 -12 60 c-22 105 -24 187 -7 266 8 41 18 76 21 79 10 10 114
-20 184 -53 40 -19 104 -55 143 -81 78 -50 78 -50 193 -20 136 36 497 37 647
2 71 -17 47 -24 223 70 96 51 210 95 235 91 9 -1 20 -22 26 -52z"/>
</g>
</svg>
