<?xml version="1.0" standalone="no"?>
<!DOCTYPE svg PUBLIC "-//W3C//DTD SVG 20010904//EN"
 "http://www.w3.org/TR/2001/REC-SVG-20010904/DTD/svg10.dtd">
<svg version="1.0" xmlns="http://www.w3.org/2000/svg"
 width="512.000000pt" height="512.000000pt" viewBox="0 0 512.000000 512.000000"
 preserveAspectRatio="xMidYMid meet">
<metadata>
Created by potrace 1.16, written by Peter Selinger 2001-2019
</metadata>
<g transform="translate(0.000000,512.000000) scale(0.100000,-0.100000)"
fill="#000000" stroke="none">
<path d="M2470 4893 c-189 -6 -430 -48 -610 -105 -367 -117 -680 -307 -950
-578 -194 -194 -333 -390 -454 -640 -157 -327 -227 -637 -227 -1010 0 -373 70
-683 227 -1010 121 -250 260 -446 454 -640 193 -194 389 -333 640 -454 324
-156 637 -226 1010 -227 374 0 683 70 1010 227 250 121 446 260 640 454 194
194 333 390 454 640 157 327 227 637 227 1010 0 388 -75 708 -245 1050 -188
375 -497 714 -859 939 -381 237 -847 358 -1317 344z m380 -189 c477 -63 925
-292 1266 -646 301 -312 492 -687 577 -1127 19 -101 22 -149 22 -371 0 -222
-3 -270 -22 -371 -88 -458 -285 -832 -607 -1155 -143 -142 -268 -241 -428
-336 -449 -267 -982 -360 -1506 -263 -300 56 -612 194 -876 386 -130 96 -351
316 -449 447 -203 275 -334 576 -400 921 -19 101 -22 149 -22 371 0 222 3 270
22 371 67 346 197 647 400 921 98 131 309 343 440 440 462 342 1018 487 1583
412z"/>
<path d="M1718 3940 c-240 -29 -436 -190 -516 -424 l-27 -81 0 -865 c0 -796 1
-870 18 -930 60 -223 224 -387 447 -447 60 -17 134 -18 920 -18 785 0 860 1
920 18 222 60 387 225 447 447 17 60 18 134 18 920 0 786 -1 860 -18 920 -60
220 -221 383 -442 447 -54 15 -137 17 -880 19 -451 1 -850 -2 -887 -6z m1667
-170 c199 -29 356 -186 385 -385 13 -94 13 -1556 0 -1650 -29 -199 -186 -356
-385 -385 -94 -13 -1556 -13 -1650 0 -199 29 -356 186 -385 385 -13 94 -13
1556 0 1650 28 195 187 356 376 384 85 12 1573 13 1659 1z"/>
<path d="M3293 3511 c-110 -51 -99 -227 16 -262 125 -37 230 81 175 197 -34
71 -117 100 -191 65z"/>
<path d="M2390 3285 c-82 -18 -228 -90 -302 -150 -117 -92 -222 -265 -254
-415 -21 -98 -14 -289 14 -376 61 -192 190 -348 365 -440 110 -57 177 -75 312
-81 152 -6 238 11 360 71 162 81 268 188 346 351 49 100 69 193 69 315 0 127
-21 217 -74 325 -95 191 -248 322 -450 387 -82 27 -295 34 -386 13z m305 -170
c106 -27 184 -72 266 -154 180 -181 220 -427 107 -661 -45 -94 -160 -206 -258
-253 -228 -108 -473 -66 -651 112 -141 142 -198 329 -158 523 41 199 215 378
419 432 73 19 201 20 275 1z"/>
</g>
</svg>
