<?xml version="1.0" standalone="no"?>
<!DOCTYPE svg PUBLIC "-//W3C//DTD SVG 20010904//EN"
 "http://www.w3.org/TR/2001/REC-SVG-20010904/DTD/svg10.dtd">
<svg version="1.0" xmlns="http://www.w3.org/2000/svg"
 width="512.000000pt" height="512.000000pt" viewBox="0 0 512.000000 512.000000"
 preserveAspectRatio="xMidYMid meet">
<metadata>
Created by potrace 1.16, written by Peter Selinger 2001-2019
</metadata>
<g transform="translate(0.000000,512.000000) scale(0.100000,-0.100000)"
fill="#000000" stroke="none">
<path d="M162 5089 c-69 -34 -104 -71 -138 -144 l-24 -50 0 -2336 0 -2336 31
-61 c34 -69 71 -104 144 -138 l50 -24 1821 0 1821 0 27 26 c37 38 37 110 0
148 l-27 26 -1796 2 c-1688 3 -1798 4 -1823 20 -16 11 -31 34 -37 55 -15 53
-15 4513 0 4566 17 62 43 71 201 75 131 4 138 5 163 29 36 37 36 110 -1 147
-27 26 -27 26 -189 26 -160 0 -162 0 -223 -31z"/>
<path d="M826 5094 c-21 -21 -26 -36 -26 -74 0 -66 34 -100 100 -100 66 0 100
34 100 100 0 38 -5 53 -26 74 -21 21 -36 26 -74 26 -38 0 -53 -5 -74 -26z"/>
<path d="M1226 5094 c-37 -38 -37 -110 0 -148 l27 -26 1776 0 c1203 0 1788 -3
1814 -11 21 -6 44 -21 55 -37 16 -25 17 -156 17 -2308 0 -1862 -2 -2285 -13
-2305 -25 -47 -48 -53 -194 -57 -131 -4 -138 -5 -163 -29 -36 -37 -36 -110 1
-147 27 -26 27 -26 189 -26 160 0 162 0 223 31 69 34 104 71 138 144 l24 50 0
2335 0 2335 -24 50 c-34 73 -69 110 -138 144 l-61 31 -1822 0 -1822 0 -27 -26z"/>
<path d="M1085 4391 c-170 -48 -303 -178 -361 -351 -26 -76 -26 -244 0 -320
91 -269 371 -425 639 -355 187 49 345 206 386 385 13 58 13 202 0 260 -30 133
-150 284 -271 342 -121 59 -272 74 -393 39z m259 -211 c69 -26 134 -83 171
-151 27 -49 30 -62 30 -149 0 -87 -3 -100 -30 -149 -105 -190 -354 -229 -506
-77 -82 81 -116 203 -86 307 54 185 245 285 421 219z"/>
<path d="M3315 3299 c-138 -17 -317 -86 -427 -165 l-48 -34 0 40 c0 54 -17 86
-55 105 -28 13 -89 15 -400 15 -390 0 -409 -2 -435 -49 -7 -13 -10 -419 -10
-1231 l0 -1212 29 -29 29 -29 407 0 c258 0 413 4 425 10 45 24 45 18 50 785
l5 730 28 57 c65 133 211 195 355 153 68 -20 151 -96 183 -167 l24 -53 5 -733
5 -734 28 -24 28 -24 407 0 c444 0 437 -1 461 58 9 21 11 242 8 872 -3 837 -3
846 -25 929 -62 232 -209 441 -402 570 -204 136 -431 190 -675 160z m324 -230
c211 -57 394 -208 490 -403 79 -160 75 -109 78 -973 l4 -773 -265 0 -265 0 -3
688 -3 689 -42 84 c-157 317 -560 388 -810 143 -70 -68 -125 -171 -143 -263
-6 -33 -10 -304 -10 -697 l0 -644 -265 0 -265 0 0 1065 0 1065 245 0 245 0 0
-111 c0 -157 24 -199 115 -199 31 0 47 13 142 108 60 59 134 122 166 141 177
104 391 133 586 80z"/>
<path d="M824 3250 c-12 -4 -31 -21 -43 -36 l-21 -27 0 -1199 c0 -1291 -2
-1240 49 -1268 13 -6 166 -10 426 -10 l407 0 29 29 29 29 0 1212 c0 812 -3
1218 -10 1231 -26 47 -43 49 -457 48 -213 0 -398 -4 -409 -9z m676 -1265 l0
-1065 -265 0 -265 0 0 1065 0 1065 265 0 265 0 0 -1065z"/>
<path d="M4146 174 c-21 -21 -26 -36 -26 -74 0 -66 34 -100 100 -100 66 0 100
34 100 100 0 66 -34 100 -100 100 -38 0 -53 -5 -74 -26z"/>
</g>
</svg>
