<?xml version="1.0" standalone="no"?>
<!DOCTYPE svg PUBLIC "-//W3C//DTD SVG 20010904//EN"
 "http://www.w3.org/TR/2001/REC-SVG-20010904/DTD/svg10.dtd">
<svg version="1.0" xmlns="http://www.w3.org/2000/svg"
 width="500.000000pt" height="500.000000pt" viewBox="0 0 500.000000 500.000000"
 preserveAspectRatio="xMidYMid meet">
<metadata>
Created by potrace 1.16, written by Peter Selinger 2001-2019
</metadata>
<g transform="translate(0.000000,500.000000) scale(0.100000,-0.100000)"
fill="#000000" stroke="none">
<path d="M0 2500 l0 -2500 2500 0 2500 0 0 2500 0 2500 -2500 0 -2500 0 0
-2500z m2067 1312 c156 -41 257 -109 310 -209 94 -177 63 -396 -74 -529 -41
-40 -168 -112 -222 -127 -17 -4 -22 -11 -17 -22 8 -22 342 -558 364 -585 15
-19 26 -21 105 -18 l87 3 -30 37 c-80 96 -113 234 -92 375 38 245 223 373 536
373 191 0 317 -41 406 -129 124 -125 73 -280 -101 -306 l-46 -7 -7 79 c-16
177 -59 267 -151 316 -56 30 -191 30 -256 1 -134 -61 -193 -201 -159 -379 24
-128 89 -192 304 -300 l129 -65 758 0 759 0 0 -245 0 -245 -545 0 -544 0 -6
-37 c-23 -153 -53 -221 -131 -298 -104 -104 -257 -155 -469 -155 -199 0 -339
43 -429 133 -96 96 -116 241 -44 322 l30 35 -1041 0 -1041 0 0 245 0 245 445
0 445 0 0 698 c0 674 -1 698 -20 729 -26 43 -71 65 -147 71 -35 2 -63 9 -63
14 0 6 164 8 438 5 405 -4 443 -6 519 -25z"/>
<path d="M1620 3381 l0 -441 118 0 c69 0 139 6 171 14 160 43 221 160 221 421
0 201 -36 313 -122 378 -59 45 -113 59 -255 64 l-133 6 0 -442z"/>
<path d="M1620 2620 l0 -300 251 0 c230 0 251 1 245 17 -4 9 -84 144 -179 300
l-172 283 -72 0 -73 0 0 -300z"/>
<path d="M1680 2199 c-24 -5 -65 -21 -90 -37 -36 -22 -45 -34 -47 -57 -1 -19
0 -22 4 -10 8 32 25 47 78 71 60 28 142 33 152 8 13 -34 -48 -94 -109 -109
l-28 -7 14 46 c8 25 10 44 5 40 -5 -3 -12 -19 -17 -37 -5 -18 -14 -33 -20 -33
-25 -3 -26 -5 -9 -18 17 -13 17 -17 3 -51 -14 -33 -14 -36 -1 -25 8 7 15 19
15 26 0 21 14 17 40 -11 26 -28 61 -32 80 -10 11 13 14 13 26 -2 12 -17 14
-17 29 -2 16 15 20 15 44 1 25 -14 30 -14 58 0 31 15 31 15 37 -15 3 -16 5
-41 5 -56 -1 -22 -3 -21 -9 9 l-8 35 1 -40 c3 -65 22 -46 25 25 l3 65 54 -3
c39 -3 55 -8 55 -18 0 -17 22 -18 38 -2 9 9 17 8 37 -2 22 -12 30 -11 58 2 28
14 36 14 52 2 26 -19 72 -17 122 6 42 19 43 19 53 -1 14 -25 54 -25 97 2 19
12 32 23 30 26 -3 2 -20 -5 -38 -16 -40 -25 -62 -26 -79 -6 -10 12 -7 27 11
79 19 52 21 68 11 78 -19 19 -30 0 -45 -72 -13 -64 -14 -65 -59 -84 -29 -12
-55 -16 -72 -12 -31 8 -34 22 -6 29 11 3 20 12 20 21 0 22 -14 20 -48 -9 -41
-35 -79 -47 -103 -35 -10 6 -19 17 -19 25 0 23 -18 27 -49 10 -53 -27 -142
-15 -106 15 9 7 14 19 11 27 -3 8 -1 11 4 8 6 -3 10 1 10 9 0 31 -21 15 -40
-29 -15 -34 -29 -50 -54 -60 -44 -19 -64 -11 -74 28 l-8 32 -27 -27 c-15 -15
-27 -22 -27 -15 0 6 -7 1 -16 -11 -8 -12 -24 -22 -35 -22 -19 0 -69 41 -69 57
0 4 20 16 45 26 84 35 125 116 69 137 -14 6 -28 10 -32 9 -4 -1 -27 -5 -52
-10z"/>
<path d="M3100 2009 c-51 -35 -83 -35 -88 -1 l-4 24 -25 -24 -26 -23 6 23 c6
26 0 27 -27 7 -26 -19 -72 -19 -80 0 -7 19 -30 19 -46 0 -23 -27 1 -37 66 -26
38 6 63 5 71 -1 8 -6 19 -6 31 1 16 8 21 7 26 -5 9 -23 64 -13 113 20 40 28
84 38 50 12 -16 -13 -16 -14 -1 -20 15 -6 15 -8 2 -24 -24 -27 -49 -82 -43
-92 17 -28 80 57 73 97 -2 14 5 18 40 19 30 2 42 -2 42 -12 0 -19 26 -18 34 1
5 14 8 14 30 -1 21 -13 31 -14 60 -4 19 6 40 18 47 26 9 11 0 9 -28 -6 -33
-17 -46 -19 -62 -10 -12 6 -21 14 -21 18 0 4 -4 13 -9 21 -7 11 -13 11 -32 0
-33 -18 -122 -29 -109 -14 5 7 7 15 3 18 -14 15 -50 5 -93 -24z"/>
<path d="M2663 1754 c17 -197 79 -313 197 -368 36 -16 65 -21 145 -21 87 0
107 4 155 26 30 14 69 37 85 52 68 56 113 195 100 301 -12 95 27 86 -352 86
l-336 0 6 -76z"/>
</g>
</svg>
